# xmcd
#
# Track frame offsets:
# 150
# 14181
# 28042
# 42113
# 55015
# 67775
# 81506
# 96851
# 110701
# 122576
# 135058
# 147724
# 159321
# 174624
# 186072
# 198877
# 216334
# 230754
# 245092
# 256810
# 270770
# 281164
#
# Disc length: 3872 seconds
#
# Revision: 0
# Processed by: cddbd v1.5.2PL0 Copyright (c) Steve Scherf et al.
# Submitted via: Audion 3.0.2 (http://www.panic.com/audion/)
#
DISCID=3e0f1e16
DTITLE=Michael Crichton - The Terminal Man 06
DYEAR=1900
DGENRE=
TTITLE0=1 06/01 6a.aiff
TTITLE1=2 06/02 6b.aiff
TTITLE2=3 06/03 6c.aiff
TTITLE3=4 06/04 6d.aiff
TTITLE4=5 06/05 6e.aiff
TTITLE5=6 06/06 6f.aiff
TTITLE6=7 06/07 6g.aiff
TTITLE7=8 06/08 6h.aiff
TTITLE8=9 06/09 6i.aiff
TTITLE9=10 06/10 6j.aiff
TTITLE10=11 06/11 6k.aiff
TTITLE11=12 06/12 6l.aiff
TTITLE12=13 06/13 6m.aiff
TTITLE13=14 06/14 6n.aiff
TTITLE14=15 06/15 6o.aiff
TTITLE15=16 06/16 6p.aiff
TTITLE16=17 06/17 6q.aiff
TTITLE17=18 06/18 6r.aiff
TTITLE18=19 06/19 6s.aiff
TTITLE19=20 06/20 6t.aiff
TTITLE20=21 06/21 6u.aiff
TTITLE21=22 06/22 6v.aiff
EXTD=
EXTT0=
EXTT1=
EXTT2=
EXTT3=
EXTT4=
EXTT5=
EXTT6=
EXTT7=
EXTT8=
EXTT9=
EXTT10=
EXTT11=
EXTT12=
EXTT13=
EXTT14=
EXTT15=
EXTT16=
EXTT17=
EXTT18=
EXTT19=
EXTT20=
EXTT21=
PLAYORDER=
